# xmcd
#
# Track frame offsets: 
#        150
#        14850
#        27265
#        38310
#        53350
#        64617
#        74697
#        86202
#        96620
#        107142
#        121812
#        134242
#        146612
#        163715
#        174315
#        186440
#        196687
#        208902
#        219472
#        233995
#        250822
#        267060
#        281270
#        296845
#        311167
#        319125
#
# Disc length: 4437 seconds
#
# Revision: 0
# Processed by: cddbd v1.5.2PL0 Copyright (c) Steve Scherf et al.
# Submitted via: ExactAudioCopy v1.0b3
#
DISCID=9211531a
DTITLE=Various Artist - Juke Joint Blues 1950's - 1960's
DYEAR=1999
DGENRE=Blues
TTITLE0=Rufus "Bearcat" Thomas - I'm Steady Holdin' On
TTITLE1=Rufus "Bearcat" Thomas - The Easy Livin' Plan
TTITLE2=Long Gone Miles With George Smith - Gotta Find My Baby
TTITLE3=Long Gone Miles With George Smith - Little Sweet Thin
TTITLE4=Long Gone Miles With George Smith - Hello Jesephine
TTITLE5=Eddie Lang - You Got To Crawl Before You Walk
TTITLE6=Eddie Lang - I'm All Alone
TTITLE7=Eddie Lang - Come On Home
TTITLE8=Eddie Lang - I'm Beggin' With Tears
TTITLE9=Walter Miller - My Last Mile
TTITLE10=Walter Miller - Standing On The Highway
TTITLE11=Jim Lockhart - Boogie Woogie Baby
TTITLE12=Clarence Lively - Back To The Country
TTITLE13=Clarence Lively - Stop It All (Roll 'Em Pete)
TTITLE14=Clarence Lively - untitled boogie
TTITLE15=unknown artist (possibly Big Walter Horton) - untitled harmon
TTITLE15=ica boogie
TTITLE16=unknown artist (possibly Big Walter Horton) - untitled harmon
TTITLE16=ica boogie
TTITLE17=Long Gone Miles With George Smith - Let Me Play With Your Poo
TTITLE17=dle
TTITLE18=Long Gone Miles With George Smith - Low Down Dirty Shame
TTITLE19=Long Gone Miles With George Smith - Need Love So Bad
TTITLE20=Long Gone Miles With George Smith - Rocks In My Pillow Blues
TTITLE21=Long Gone Miles With George Smith - My Kind Of Woman
TTITLE22=Long Gone Miles With George Smith - Miss Nera Belle
TTITLE23=Long Gone Miles With George Smith - I Don't Want No Army
TTITLE24=Leon "Dr. Jive" Williams - The Other Man
TTITLE25=Leon "Dr. Jive" Williams - Same Mistake Twice
EXTD=
EXTT0=
EXTT1=
EXTT2=
EXTT3=
EXTT4=
EXTT5=
EXTT6=
EXTT7=
EXTT8=
EXTT9=
EXTT10=
EXTT11=
EXTT12=
EXTT13=
EXTT14=
EXTT15=
EXTT16=
EXTT17=
EXTT18=
EXTT19=
EXTT20=
EXTT21=
EXTT22=
EXTT23=
EXTT24=
EXTT25=
PLAYORDER=
